<?xml version="1.0" encoding="utf-8"?>
<svg viewBox="0 0 700 600" xmlns="http://www.w3.org/2000/svg">
  <path d="M 682.49 500.994 L 17.5 500.994 C 7.831 500.994 0 508.825 0 518.494 L 0 553.493 C 0 563.162 7.831 570.993 17.5 570.993 L 682.49 570.993 C 692.159 570.993 699.99 563.162 699.99 553.493 L 699.99 518.494 C 699.99 508.825 692.159 500.994 682.49 500.994 Z M 88.101 384.26 C 94.969 391.741 104.616 395.984 114.711 395.974 L 257.487 395.777 C 268.755 395.762 279.86 393.094 289.905 387.989 L 608.138 226.5 C 637.384 211.658 663.601 190.472 681.44 162.724 C 701.466 131.574 703.643 109.033 695.735 93.108 C 687.849 77.172 668.676 65.469 632.025 63.085 C 599.377 60.963 566.904 69.56 537.658 84.391 L 429.914 139.066 L 190.715 49.315 C 184.858 45.369 177.324 44.905 171.027 48.101 L 99.114 84.599 C 87.444 90.516 84.622 106.09 93.46 115.803 L 264.323 223.098 L 151.439 280.388 L 72.307 240.499 C 66.778 237.712 60.253 237.72 54.731 240.521 L 10.839 262.801 C -0.579 268.597 -3.587 283.713 4.747 293.513 L 88.101 384.26 Z" style="fill: rgb(0, 209, 178);"/>
</svg>